<svg width="12" height="12" viewBox="0 0 12 12" fill="none" xmlns="http://www.w3.org/2000/svg">
<path d="M0.077559 6.38091C0.125153 6.50366 0.196519 6.61581 0.28756 6.71091L5.28756 11.7109C5.3808 11.8042 5.49149 11.8781 5.61331 11.9286C5.73513 11.979 5.8657 12.005 5.99756 12.005C6.26386 12.005 6.51925 11.8992 6.70756 11.7109C6.8008 11.6177 6.87476 11.507 6.92522 11.3852C6.97568 11.2633 7.00165 11.1328 7.00165 11.0009C7.00165 10.7346 6.89586 10.4792 6.70756 10.2909L3.40756 7.00091L10.9976 7.00091C11.2628 7.00091 11.5171 6.89556 11.7047 6.70802C11.8922 6.52048 11.9976 6.26613 11.9976 6.00091C11.9976 5.7357 11.8922 5.48134 11.7047 5.29381C11.5171 5.10627 11.2628 5.00091 10.9976 5.00091L3.40756 5.00091L6.70756 1.71091C6.80129 1.61795 6.87568 1.50735 6.92645 1.38549C6.97722 1.26363 7.00336 1.13292 7.00336 1.00091C7.00336 0.868902 6.97722 0.738196 6.92645 0.616336C6.87568 0.494477 6.80129 0.383877 6.70756 0.290914C6.6146 0.197186 6.504 0.12279 6.38214 0.072021C6.26028 0.0212521 6.12957 -0.00488523 5.99756 -0.00488524C5.86555 -0.00488526 5.73484 0.0212521 5.61298 0.0720209C5.49112 0.12279 5.38052 0.197186 5.28756 0.290914L0.28756 5.29091C0.196519 5.38602 0.125153 5.49816 0.0775591 5.62091C-0.0224585 5.86437 -0.0224585 6.13745 0.077559 6.38091Z" fill="#3B3B3B"/>
</svg>
